<mxfile host="app.diagrams.net" modified="2024-04-14T16:21:06.528Z" agent="Mozilla/5.0 (Windows NT 10.0; Win64; x64) AppleWebKit/537.36 (KHTML, like Gecko) Chrome/123.0.0.0 Safari/537.36" etag="ypdkody51zAnDmxTyAV5" version="24.2.5" type="github">
  <diagram name="Page-1" id="T4zPLolbj6qZEZNWN68y">
    <mxGraphModel dx="1434" dy="756" grid="0" gridSize="10" guides="1" tooltips="1" connect="1" arrows="1" fold="1" page="0" pageScale="1" pageWidth="850" pageHeight="1100" background="#F5F5F5" math="0" shadow="0">
      <root>
        <mxCell id="0" />
        <mxCell id="1" parent="0" />
      </root>
    </mxGraphModel>
  </diagram>
</mxfile>
